<svg width="104" height="38" viewBox="0 0 104 38" fill="none" xmlns="http://www.w3.org/2000/svg">
<path d="M40.1761 3.736L34.6081 37H24.3841L20.2561 11.608L15.8881 37H5.90413L0.432129 3.736H8.30413L11.6161 31.048L16.2241 3.736H24.4801L28.8001 31.048L32.6881 3.736H40.1761Z" fill="#141414"/>
<path d="M54.188 10.696C58.092 10.696 61.148 11.896 63.356 14.296C65.564 16.664 66.668 19.992 66.668 24.28C66.668 27 66.156 29.384 65.132 31.432C64.14 33.448 62.7 35.016 60.812 36.136C58.956 37.256 56.748 37.816 54.188 37.816C50.316 37.816 47.26 36.632 45.02 34.264C42.812 31.864 41.708 28.52 41.708 24.232C41.708 21.512 42.204 19.144 43.196 17.128C44.22 15.08 45.66 13.496 47.516 12.376C49.404 11.256 51.628 10.696 54.188 10.696ZM54.188 16.264C52.652 16.264 51.5 16.92 50.732 18.232C49.964 19.512 49.58 21.512 49.58 24.232C49.58 27.016 49.948 29.048 50.684 30.328C51.452 31.608 52.62 32.248 54.188 32.248C55.724 32.248 56.876 31.608 57.644 30.328C58.412 29.016 58.796 27 58.796 24.28C58.796 21.496 58.412 19.464 57.644 18.184C56.908 16.904 55.756 16.264 54.188 16.264Z" fill="#141414"/>
<path d="M77.9473 37.816C75.7393 37.816 74.0113 37.192 72.7633 35.944C71.5472 34.664 70.9393 32.856 70.9393 30.52V1.38399L78.5233 0.567993V30.232C78.5233 31.288 78.9553 31.816 79.8193 31.816C80.2673 31.816 80.6833 31.736 81.0673 31.576L82.5553 36.952C81.1793 37.528 79.6433 37.816 77.9473 37.816Z" fill="#141414"/>
<path d="M97.0933 6.184C96.0053 6.184 95.2213 6.43999 94.7413 6.95199C94.2613 7.46399 94.0213 8.328 94.0213 9.54399V11.512H100.021L99.2053 16.792H94.0213V37H86.4373V16.792H82.5973V11.512H86.4373V9.256C86.4373 6.69599 87.2692 4.61599 88.9333 3.016C90.6292 1.38399 93.0452 0.567993 96.1813 0.567993C98.7093 0.567993 101.029 1.11199 103.141 2.2L101.077 7.14399C99.7973 6.50399 98.4693 6.184 97.0933 6.184Z" fill="#141414"/>
</svg>
